<mxfile host="app.diagrams.net" modified="2023-03-02T06:10:09.701Z" agent="5.0 (Macintosh; Intel Mac OS X 10_15_7) AppleWebKit/537.36 (KHTML, like Gecko) Chrome/110.0.0.0 Safari/537.36" etag="weeY10zOciXxOPeiasGW" version="20.8.23" type="github">
  <diagram name="Page-1" id="FmBvdO2NgKGdLCpRk35A">
    <mxGraphModel dx="1306" dy="779" grid="1" gridSize="10" guides="1" tooltips="1" connect="1" arrows="1" fold="1" page="1" pageScale="1" pageWidth="850" pageHeight="1100" math="0" shadow="0">
      <root>
        <mxCell id="0" />
        <mxCell id="1" parent="0" />
        <mxCell id="D-rJJjjpReRslCD_KMhC-17" value="&lt;font color=&quot;#b5739d&quot; style=&quot;font-size: 18px;&quot;&gt;&lt;i style=&quot;&quot;&gt;&lt;b style=&quot;&quot;&gt;110.8.8.8&lt;/b&gt;&lt;/i&gt;&lt;/font&gt;" style="rounded=1;whiteSpace=wrap;html=1;dashed=1;fontSize=14;fillColor=#d5e8d4;strokeColor=#82b366;" vertex="1" parent="1">
          <mxGeometry x="160" y="230" width="320" height="210" as="geometry" />
        </mxCell>
        <mxCell id="D-rJJjjpReRslCD_KMhC-4" style="edgeStyle=orthogonalEdgeStyle;rounded=0;orthogonalLoop=1;jettySize=auto;html=1;exitX=0.5;exitY=1;exitDx=0;exitDy=0;fontSize=14;fontColor=#67AB9F;endArrow=none;endFill=0;strokeWidth=2;strokeColor=#9AC7BF;" edge="1" parent="1" source="D-rJJjjpReRslCD_KMhC-1" target="D-rJJjjpReRslCD_KMhC-3">
          <mxGeometry relative="1" as="geometry" />
        </mxCell>
        <mxCell id="D-rJJjjpReRslCD_KMhC-1" value="&lt;font size=&quot;1&quot; color=&quot;#67ab9f&quot;&gt;&lt;b style=&quot;font-size: 14px;&quot;&gt;&lt;i&gt;中国移动&lt;/i&gt;&lt;/b&gt;&lt;/font&gt;" style="rounded=1;whiteSpace=wrap;html=1;fillColor=#f5f5f5;fontColor=#333333;strokeColor=#666666;dashed=1;" vertex="1" parent="1">
          <mxGeometry x="160" y="120" width="120" height="60" as="geometry" />
        </mxCell>
        <mxCell id="D-rJJjjpReRslCD_KMhC-14" style="edgeStyle=orthogonalEdgeStyle;rounded=0;orthogonalLoop=1;jettySize=auto;html=1;strokeWidth=2;fontSize=14;fontColor=#67AB9F;endArrow=none;endFill=0;strokeColor=#9AC7BF;entryX=-0.023;entryY=-0.009;entryDx=0;entryDy=0;entryPerimeter=0;" edge="1" parent="1" source="D-rJJjjpReRslCD_KMhC-3" target="D-rJJjjpReRslCD_KMhC-13">
          <mxGeometry relative="1" as="geometry" />
        </mxCell>
        <mxCell id="D-rJJjjpReRslCD_KMhC-3" value="&lt;b&gt;&lt;i&gt;&lt;font color=&quot;#9ac7bf&quot;&gt;Router 1&lt;/font&gt;&lt;/i&gt;&lt;/b&gt;" style="sketch=0;outlineConnect=0;fontColor=#232F3E;gradientColor=none;fillColor=#4D27AA;strokeColor=none;dashed=0;verticalLabelPosition=bottom;verticalAlign=top;align=center;html=1;fontSize=12;fontStyle=0;aspect=fixed;pointerEvents=1;shape=mxgraph.aws4.customer_gateway;" vertex="1" parent="1">
          <mxGeometry x="195" y="250" width="50" height="50" as="geometry" />
        </mxCell>
        <mxCell id="D-rJJjjpReRslCD_KMhC-8" style="edgeStyle=orthogonalEdgeStyle;rounded=0;orthogonalLoop=1;jettySize=auto;html=1;exitX=0.5;exitY=1;exitDx=0;exitDy=0;fontSize=14;fontColor=#67AB9F;endArrow=none;endFill=0;strokeWidth=2;strokeColor=#7EA6E0;" edge="1" parent="1" source="D-rJJjjpReRslCD_KMhC-9" target="D-rJJjjpReRslCD_KMhC-10">
          <mxGeometry relative="1" as="geometry" />
        </mxCell>
        <mxCell id="D-rJJjjpReRslCD_KMhC-9" value="&lt;font size=&quot;1&quot; color=&quot;#67ab9f&quot;&gt;&lt;b style=&quot;font-size: 14px;&quot;&gt;&lt;i&gt;中国联通&lt;/i&gt;&lt;/b&gt;&lt;/font&gt;" style="rounded=1;whiteSpace=wrap;html=1;fillColor=#f5f5f5;fontColor=#333333;strokeColor=#666666;dashed=1;" vertex="1" parent="1">
          <mxGeometry x="360" y="120" width="120" height="60" as="geometry" />
        </mxCell>
        <mxCell id="D-rJJjjpReRslCD_KMhC-15" style="edgeStyle=orthogonalEdgeStyle;rounded=0;orthogonalLoop=1;jettySize=auto;html=1;strokeWidth=2;fontSize=14;fontColor=#67AB9F;endArrow=none;endFill=0;strokeColor=#7EA6E0;entryX=0.986;entryY=-0.009;entryDx=0;entryDy=0;entryPerimeter=0;" edge="1" parent="1" source="D-rJJjjpReRslCD_KMhC-10" target="D-rJJjjpReRslCD_KMhC-13">
          <mxGeometry relative="1" as="geometry" />
        </mxCell>
        <mxCell id="D-rJJjjpReRslCD_KMhC-10" value="&lt;i&gt;&lt;b&gt;&lt;font color=&quot;#9ac7bf&quot;&gt;Router 2&lt;/font&gt;&lt;/b&gt;&lt;/i&gt;" style="sketch=0;outlineConnect=0;fontColor=#232F3E;gradientColor=none;fillColor=#4D27AA;strokeColor=none;dashed=0;verticalLabelPosition=bottom;verticalAlign=top;align=center;html=1;fontSize=12;fontStyle=0;aspect=fixed;pointerEvents=1;shape=mxgraph.aws4.customer_gateway;" vertex="1" parent="1">
          <mxGeometry x="395" y="250" width="50" height="50" as="geometry" />
        </mxCell>
        <mxCell id="D-rJJjjpReRslCD_KMhC-13" value="&lt;b&gt;&lt;i&gt;服务器&lt;/i&gt;&lt;/b&gt;" style="points=[];aspect=fixed;html=1;align=center;shadow=0;dashed=0;image;image=img/lib/allied_telesis/computer_and_terminals/Server_Desktop.svg;fontSize=14;fontColor=#67AB9F;" vertex="1" parent="1">
          <mxGeometry x="300" y="350" width="40" height="50.7" as="geometry" />
        </mxCell>
        <mxCell id="D-rJJjjpReRslCD_KMhC-18" value="&lt;font style=&quot;font-size: 8px;&quot;&gt;&lt;i&gt;&lt;b&gt;互联网数据中心&lt;/b&gt;&lt;/i&gt;&lt;/font&gt;" style="text;html=1;strokeColor=none;fillColor=none;align=center;verticalAlign=middle;whiteSpace=wrap;rounded=0;fontSize=18;fontColor=#9AC7BF;" vertex="1" parent="1">
          <mxGeometry x="195" y="380" width="60" height="30" as="geometry" />
        </mxCell>
        <mxCell id="D-rJJjjpReRslCD_KMhC-19" value="" style="outlineConnect=0;dashed=0;verticalLabelPosition=bottom;verticalAlign=top;align=center;html=1;shape=mxgraph.aws3.user;fillColor=#D2D3D3;gradientColor=none;fontSize=17;fontColor=#B5739D;" vertex="1" parent="1">
          <mxGeometry x="70" y="130" width="40" height="40" as="geometry" />
        </mxCell>
        <mxCell id="D-rJJjjpReRslCD_KMhC-20" value="" style="endArrow=none;html=1;rounded=0;strokeColor=#9AC7BF;strokeWidth=2;fontSize=17;fontColor=#B5739D;entryX=0;entryY=0.5;entryDx=0;entryDy=0;" edge="1" parent="1" source="D-rJJjjpReRslCD_KMhC-19" target="D-rJJjjpReRslCD_KMhC-1">
          <mxGeometry width="50" height="50" relative="1" as="geometry">
            <mxPoint x="30" y="560" as="sourcePoint" />
            <mxPoint x="80" y="510" as="targetPoint" />
          </mxGeometry>
        </mxCell>
        <mxCell id="D-rJJjjpReRslCD_KMhC-21" value="" style="outlineConnect=0;dashed=0;verticalLabelPosition=bottom;verticalAlign=top;align=center;html=1;shape=mxgraph.aws3.user;fillColor=#D2D3D3;gradientColor=none;fontSize=17;fontColor=#B5739D;" vertex="1" parent="1">
          <mxGeometry x="530" y="130" width="40" height="40" as="geometry" />
        </mxCell>
        <mxCell id="D-rJJjjpReRslCD_KMhC-23" style="edgeStyle=orthogonalEdgeStyle;rounded=0;orthogonalLoop=1;jettySize=auto;html=1;exitX=1;exitY=0.5;exitDx=0;exitDy=0;fontSize=14;fontColor=#67AB9F;endArrow=none;endFill=0;strokeWidth=2;strokeColor=#7EA6E0;" edge="1" parent="1" source="D-rJJjjpReRslCD_KMhC-9" target="D-rJJjjpReRslCD_KMhC-21">
          <mxGeometry relative="1" as="geometry">
            <mxPoint x="430" y="190" as="sourcePoint" />
            <mxPoint x="430" y="260" as="targetPoint" />
          </mxGeometry>
        </mxCell>
      </root>
    </mxGraphModel>
  </diagram>
</mxfile>
